<svg width="17" height="17" viewBox="0 0 17 17" fill="none" xmlns="http://www.w3.org/2000/svg">
<path d="M16.8067 14.2872L10.9984 8.45981L16.82 2.70761C16.9348 2.59249 16.9993 2.43655 16.9993 2.27398C16.9993 2.11141 16.9348 1.95548 16.82 1.84035L15.1642 0.176641C15.1072 0.119974 15.0395 0.0751591 14.965 0.0447814C14.8906 0.0144038 14.8108 -0.000935153 14.7304 -0.000350083C14.5683 0.000510845 14.4129 0.0639241 14.2965 0.176641L8.5015 5.91114L2.6976 0.181066C2.64056 0.124399 2.57285 0.0795838 2.49838 0.0492061C2.42392 0.0188285 2.34418 0.00348989 2.26375 0.00407496C2.1017 0.00493589 1.94626 0.0683492 1.8299 0.181066L0.178597 1.84478C0.0637559 1.9599 -0.000732422 2.11584 -0.000732422 2.27841C-0.000732422 2.44097 0.0637559 2.59691 0.178597 2.71203L6.0002 8.46424L0.196305 14.2872C0.138987 14.344 0.093448 14.4116 0.0623003 14.486C0.0311527 14.5604 0.0150091 14.6402 0.0147952 14.7209C0.0140084 14.8017 0.0296962 14.8818 0.0609024 14.9563C0.0921085 15.0309 0.138179 15.0983 0.196305 15.1545L1.85203 16.8182C1.90874 16.8756 1.97629 16.9212 2.05076 16.9524C2.12524 16.9835 2.20516 16.9996 2.28588 16.9996C2.3667 17.0002 2.4468 16.9844 2.52136 16.9532C2.59591 16.922 2.66339 16.8761 2.71974 16.8182L8.5015 11.0129L14.2877 16.8138C14.3444 16.8712 14.4119 16.9168 14.4864 16.948C14.5609 16.9791 14.6408 16.9951 14.7215 16.9952C14.8024 16.9957 14.8825 16.98 14.957 16.9488C15.0316 16.9176 15.099 16.8717 15.1554 16.8138L16.8111 15.1501C16.8684 15.0933 16.914 15.0257 16.9451 14.9513C16.9763 14.8769 16.9924 14.7971 16.9926 14.7164C16.9876 14.5549 16.9211 14.4014 16.8067 14.2872Z" fill="black"/>
</svg>
